<?xml version="1.0" encoding="UTF-8"?>
<svg id="Layer_1" xmlns="http://www.w3.org/2000/svg" version="1.1" viewBox="0 0 1193.69 203.12">
  <!-- Generator: Adobe Illustrator 29.0.0, SVG Export Plug-In . SVG Version: 2.1.0 Build 186)  -->
  <defs>
    <style>
      .st0 {
        fill: #def282;
      }

      .st1 {
        fill: #242424;
      }
    </style>
  </defs>
  <polygon class="st1" points="11.9 14.69 0 14.69 0 181.85 27.61 181.85 27.61 113.47 107.39 113.47 107.39 90.17 27.61 90.17 27.61 38.75 118.02 38.75 118.02 14.69 27.61 14.69 11.9 14.69"/>
  <path class="st1" d="M170.45,3.67c-3.04-2.45-7.51-3.67-13.42-3.67s-10.38,1.23-13.42,3.67c-3.04,2.45-4.56,6.04-4.56,10.76s1.52,8.57,4.56,11.02c3.04,2.45,7.51,3.67,13.42,3.67s10.38-1.27,13.42-3.8c3.04-2.53,4.56-6.16,4.56-10.89s-1.52-8.31-4.56-10.76Z"/>
  <rect class="st1" x="143.09" y="50.15" width="27.61" height="131.7"/>
  <path class="st1" d="M256.56,159.05c-5.74,0-10.13-1.43-13.17-4.3-3.04-2.87-4.56-7.6-4.56-14.18v-67.37h35.96v-23.05h-35.96v-29.38h-16.46l-2.53,18.24c-.51,4.22-1.9,7.18-4.18,8.87-2.28,1.69-5.79,2.62-10.51,2.79h-11.9l-.25,22.04h19.25v68.89c0,14.52,3.12,25.33,9.37,32.42,6.24,7.09,15.87,10.64,28.87,10.64,3.38,0,7.17-.34,11.4-1.01,4.22-.68,8.78-1.86,13.68-3.55v-26.59c-3.04,2.2-6.17,3.67-9.37,4.43-3.21.76-6.42,1.14-9.62,1.14Z"/>
  <path class="st1" d="M355.33,159.05c-5.74,0-10.13-1.43-13.17-4.3-3.04-2.87-4.56-7.6-4.56-14.18v-67.37h35.96v-23.05h-35.96v-29.38h-16.46l-2.53,18.24c-.51,4.22-1.9,7.18-4.18,8.87-2.28,1.69-5.79,2.62-10.51,2.79h-11.9l-.25,22.04h19.25v68.89c0,14.52,3.12,25.33,9.37,32.42,6.24,7.09,15.87,10.64,28.87,10.64,3.38,0,7.17-.34,11.4-1.01,4.22-.68,8.78-1.86,13.68-3.55v-26.59c-3.04,2.2-6.17,3.67-9.37,4.43-3.21.76-6.42,1.14-9.62,1.14Z"/>
  <polygon class="st0" points="461.2 4.05 397.12 203.12 423.21 203.12 487.29 4.05 461.2 4.05"/>
  <g>
    <rect class="st1" x="530.22" y="14.09" width="19.44" height="168.81"/>
    <path class="st1" d="M640.2,48.11c-8.02,0-15.09,1.62-21.23,4.86-6.14,3.24-11.21,8.23-15.22,14.96-4.01,6.74-7.29,15.31-9.85,25.71h-3.84l3.07-42.46h-18.16v131.72h18.93v-59.59c.51-10.06,2.47-19.48,5.88-28.26,3.41-8.78,8.23-15.9,14.45-21.36,6.22-5.46,13.51-8.18,21.87-8.18,9.55,0,16.75,3.67,21.61,11,4.86,7.33,7.29,18.59,7.29,33.76v72.64h18.93v-73.92c0-19.95-3.71-35.08-11.13-45.4-7.42-10.31-18.29-15.47-32.61-15.47Z"/>
    <path class="st1" d="M790.72,119.98c-4.86-2.73-10.36-4.94-16.5-6.65-6.14-1.7-12.62-3.24-19.44-4.6-6.82-1.36-13.04-2.85-18.67-4.48-5.63-1.62-10.1-3.92-13.43-6.91-3.33-2.98-4.99-6.95-4.99-11.89,0-6.48,2.85-11.59,8.57-15.35,5.71-3.75,13.43-5.63,23.15-5.63,7.16,0,13.38,1.02,18.67,3.07,5.28,2.05,9.38,5.16,12.28,9.34,2.9,4.18,4.35,9.42,4.35,15.73l17.14-3.58c-.34-8.19-2.56-15.35-6.65-21.49-4.09-6.14-9.85-10.91-17.26-14.32-7.42-3.41-16.5-5.12-27.24-5.12s-19.69,1.58-27.37,4.73c-7.67,3.16-13.56,7.54-17.65,13.17-4.09,5.63-6.14,12.45-6.14,20.46,0,6.65,1.45,12.15,4.35,16.5,2.9,4.35,6.78,7.89,11.64,10.61,4.86,2.73,10.27,4.99,16.24,6.78,5.97,1.79,12.02,3.37,18.16,4.73,7.5,1.37,14.11,2.9,19.82,4.6,5.71,1.71,10.23,4.01,13.56,6.91,3.33,2.9,4.99,6.91,4.99,12.02,0,6.65-2.99,11.85-8.95,15.6-5.97,3.75-14.41,5.63-25.32,5.63-8.7,0-16.11-1.15-22.25-3.45s-10.79-5.67-13.94-10.1c-3.16-4.43-4.39-9.8-3.71-16.11l-16.88,3.07c-.17,6.31.9,12.11,3.2,17.39,2.3,5.29,5.79,9.81,10.49,13.56,4.69,3.75,10.57,6.65,17.65,8.7,7.07,2.05,15.22,3.07,24.43,3.07,10.57,0,19.86-1.37,27.88-4.09,8.01-2.73,14.28-6.95,18.8-12.66,4.52-5.71,6.78-12.92,6.78-21.61,0-6.82-1.41-12.44-4.22-16.88-2.81-4.43-6.65-8.01-11.51-10.74Z"/>
    <rect class="st1" x="821.03" y="51.18" width="18.93" height="131.72"/>
    <path class="st1" d="M841.11,6.54c-2.47-1.96-6.1-2.94-10.87-2.94s-8.1,1.02-10.49,3.07c-2.39,2.05-3.58,4.95-3.58,8.7s1.19,6.87,3.58,8.82c2.39,1.96,5.97,2.94,10.74,2.94s8.14-.98,10.61-2.94c2.47-1.96,3.71-4.9,3.71-8.82s-1.24-6.86-3.71-8.82Z"/>
    <path class="st1" d="M954.54,43.76c0,4.26.21,9.08.64,14.45.42,5.37.98,10.79,1.66,16.24.68,5.46,1.36,10.57,2.05,15.35h-4.09c-1.71-6.82-4.31-13.38-7.8-19.69-3.5-6.31-8.27-11.55-14.32-15.73-6.05-4.18-13.86-6.27-23.4-6.27-11.25,0-20.81,2.99-28.65,8.95-7.85,5.97-13.77,14.2-17.78,24.68-4.01,10.49-6.01,22.3-6.01,35.42s2,25.11,6.01,35.42c4,10.32,9.93,18.46,17.78,24.43,7.84,5.97,17.48,8.95,28.9,8.95,8.52,0,15.69-1.71,21.48-5.12,5.79-3.41,10.53-7.97,14.2-13.68,3.67-5.71,6.52-11.98,8.57-18.8h3.84l-1.79,34.53h17.65V5.14h-18.93v38.62ZM954.54,119.21c0,5.46-.94,11.09-2.81,16.88-1.88,5.8-4.69,11.17-8.44,16.11-3.75,4.95-8.23,9-13.43,12.15-5.2,3.16-11.04,4.73-17.52,4.73-7.51,0-13.98-2.13-19.44-6.39-5.46-4.26-9.59-10.19-12.4-17.78-2.81-7.58-4.22-16.5-4.22-26.73s1.36-19.06,4.09-26.98c2.73-7.93,6.86-14.2,12.4-18.8,5.54-4.6,12.41-6.91,20.59-6.91,5.79,0,10.91,1.15,15.35,3.45,4.43,2.3,8.31,5.42,11.64,9.34,3.32,3.92,6.05,8.14,8.18,12.66,2.13,4.52,3.66,9.04,4.6,13.56.94,4.52,1.41,8.57,1.41,12.15v2.56Z"/>
    <path class="st1" d="M1085.75,153.74c-2.05,3.24-4.56,6.05-7.54,8.44-2.99,2.39-6.61,4.22-10.87,5.5-4.26,1.28-9.21,1.92-14.83,1.92-14.83,0-25.88-4.39-33.12-13.17-7.1-8.6-10.71-20.77-10.86-36.5l96.41-.72c.34-12.28-.77-22.89-3.33-31.84-2.56-8.95-6.31-16.33-11.25-22.12-4.95-5.79-10.83-10.1-17.65-12.92-6.82-2.81-14.32-4.22-22.51-4.22-9.72,0-18.29,1.75-25.71,5.24-7.42,3.5-13.68,8.48-18.8,14.96-5.12,6.48-9,14.03-11.64,22.64-2.65,8.61-3.96,18.03-3.96,28.26s1.28,18.93,3.84,27.11c2.56,8.18,6.48,15.26,11.77,21.23,5.28,5.97,11.77,10.53,19.44,13.68s16.63,4.73,26.86,4.73c7.5,0,14.24-.86,20.21-2.56,5.97-1.7,11.25-4.22,15.86-7.54s8.48-7.42,11.64-12.28c3.15-4.86,5.58-10.36,7.29-16.5l-16.63-4.09c-1.02,3.92-2.56,7.5-4.6,10.74ZM1013.63,89.92c3.41-8.1,8.22-14.28,14.45-18.54,6.22-4.26,13.51-6.39,21.87-6.39,7.84,0,14.62,1.88,20.33,5.63,5.71,3.75,10.06,9.38,13.04,16.88,1.95,4.92,3.11,10.66,3.49,17.19l-77.34.65c.84-5.64,2.21-10.79,4.15-15.41Z"/>
    <path class="st1" d="M1185.76,48.49c-2.39-.25-4.52-.38-6.39-.38-7.51,0-13.9,2.13-19.18,6.39-5.29,4.26-9.51,10.1-12.66,17.52-3.16,7.42-5.59,15.9-7.29,25.45h-4.09l2.81-46.29h-17.9v131.72h18.93v-64.2c2.39-9.38,5.24-17.94,8.57-25.71,3.33-7.76,7.37-13.98,12.15-18.67,4.77-4.69,10.57-7.03,17.39-7.03,2.21,0,4.56.26,7.03.77,2.47.51,4.9,1.19,7.29,2.05l1.28-19.69c-2.9-1.02-5.54-1.66-7.93-1.92Z"/>
  </g>
</svg>