<?xml version="1.0" encoding="UTF-8"?>
<svg xmlns="http://www.w3.org/2000/svg" version="1.1" viewBox="0 0 532.22 106.05">
  <defs>
    <style>
      .cls-1 {
        fill: #fff;
      }
    </style>
  </defs>
  <!-- Generator: Adobe Illustrator 28.7.0, SVG Export Plug-In . SVG Version: 1.2.0 Build 136)  -->
  <g>
    <g id="Layer_1">
      <g>
        <path class="cls-1" d="M30.82,106.05L0,.97h18.88l13.6,51.64L45.53.97h18.32l-30.82,105.08h-2.22Z"/>
        <path class="cls-1" d="M79.68,0l30.82,105.08h-18.74l-3.33-11.52h-20.4l-3.05,11.52h-18.18L77.46,0h2.22ZM84.4,78.15l-6.25-25.68-6.25,25.68h12.49Z"/>
        <path class="cls-1" d="M117.44.14l32.62,50.8V.97h17.35v105.08h-1.39l-34.15-53.16v52.19h-17.63V0l3.19.14Z"/>
        <path class="cls-1" d="M177.27.97h19.16v104.11h-19.16V.97Z"/>
        <path class="cls-1" d="M218.36,17.07h-15.27V.97h49.83v16.1h-15.41v88h-19.16V17.07Z"/>
        <path class="cls-1" d="M277.35,66.77L256.39.97h20.27l10.83,39.01L298.45.97h18.74l-20.68,65.24v38.87h-19.16v-38.31Z"/>
        <path class="cls-1" d="M343.71.97h44.14v16.1h-24.99v26.65h22.07v16.1h-22.07v45.25h-19.16V.97Z"/>
        <path class="cls-1" d="M412.98,0l30.82,105.08h-18.74l-3.33-11.52h-20.4l-3.05,11.52h-18.18L410.76,0h2.22ZM417.7,78.15l-6.25-25.68-6.25,25.68h12.49Z"/>
        <path class="cls-1" d="M447.54.97h19.16v104.11h-19.16V.97Z"/>
        <path class="cls-1" d="M475.58.97h24.15c19.16,0,30.54,12.22,30.54,28.73,0,14.44-6.66,22.76-15.55,27.48l17.49,47.89h-19.99l-17.49-49.97v49.97h-19.16V.97ZM494.74,16.8v32.06c10.27-.97,17.07-6.39,17.07-18.04,0-8.88-5.27-14.02-13.6-14.02h-3.47Z"/>
      </g>
    </g>
  </g>
</svg>